A cabeça do sagrado Buda, Ong-Bak, é roubada em uma vila pobre onde sua população só conhece a miséria.

Esse símbolo é o representante de uma cerimônia praticada pelos moradores do povoado, os quais acreditam que através dela a má sorte é extinta.

O jovem Ting (Tony Jaa) se oferece para recuperar a relíquia em tempo de se realizar a cerimônia.

Por sua vez, Ting é um jovem bastante seguidor dos dogmas de seu povo, por isso sente-se muito preparado para tal função, pois no local onde ela fica é o templo dos monges que criaram o menino, ensinando-o Muay Thai.

Mesmo sendo contra usar sua arte marcial em um combate, o jovem é forçado a fazer o contrário para evitar a flagelação de seu povo.

Format                         : Matroska
Format version                 : Version 4 / Version 2
File size                      : 741 MiB
Duration                       : 1h 45mn
Overall bit rate               : 986 Kbps
Encoded date                   : UTC 2013-06-15 14:07:16
Writing application            : mkvmerge v6.2.0 ('Promised Land') built on Apr 28 2013 12:22:01
Writing library                : libebml v1.3.0 + libmatroska v1.4.0

Video
ID                             : 1
Format                         : AVC
Format/Info                    : Advanced Video Codec
Format profile                 : High@L4.1
Format settings, CABAC         : Yes
Format settings, ReFrames      : 4 frames
Codec ID                       : V_MPEG4/ISO/AVC
Duration                       : 1h 45mn
Bit rate                       : 742 Kbps
Width                          : 704 pixels
Height                         : 368 pixels
Display aspect ratio           : 1.913
Frame rate mode                : Constant
Frame rate                     : 23.976 fps
Color space                    : YUV
Chroma subsampling             : 4:2:0
Bit depth                      : 8 bits
Scan type                      : Progressive
Bits/(Pixel*Frame)             : 0.120
Stream size                    : 558 MiB (75%)
Title                          : Ong Back - Zagor Lukas
Writing library                : x264 core 133 r2334 a3ac64b
Encoding settings              : cabac=1 / ref=3 / deblock=1:0:0 / analyse=0x3:0x113 / me=hex / subme=7 / psy=1 / psy_rd=1.00:0.00 / mixed_ref=1 / me_range=16 / chroma_me=1 / trellis=1 / 8x8dct=1 / cqm=0 / deadzone=21,11 / fast_pskip=1 / chroma_qp_offset=-2 / threads=3 / lookahead_threads=1 / sliced_threads=0 / nr=0 / decimate=1 / interlaced=0 / bluray_compat=0 / constrained_intra=0 / bframes=3 / b_pyramid=2 / b_adapt=1 / b_bias=0 / direct=1 / weightb=1 / open_gop=0 / weightp=2 / keyint=240 / keyint_min=23 / scenecut=40 / intra_refresh=0 / rc_lookahead=40 / rc=crf / mbtree=1 / crf=23.0 / qcomp=0.60 / qpmin=0 / qpmax=69 / qpstep=4 / vbv_maxrate=24000 / vbv_bufsize=24000 / crf_max=0.0 / nal_hrd=none / ip_ratio=1.40 / aq=1:1.00
Language                       : Portuguese
Default                        : Yes
Forced                         : No

Audio
ID                             : 2
Format                         : AC-3
Format/Info                    : Audio Coding 3
Mode extension                 : CM (complete main)
Format settings, Endianness    : Big
Codec ID                       : A_AC3
Duration                       : 1h 45mn
Bit rate mode                  : Constant
Bit rate                       : 224 Kbps
Channel(s)                     : 2 channels
Channel positions              : Front: L R
Sampling rate                  : 48.0 KHz
Bit depth                      : 16 bits
Compression mode               : Lossy
Stream size                    : 168 MiB (23%)
Title                          : por
Language                       : Portuguese
Default                        : Yes
Forced                         : No

Text #1
ID                             : 3
Format                         : VobSub
Muxing mode                    : zlib
Codec ID                       : S_VOBSUB
Codec ID/Info                  : The same subtitle format used on DVDs
Title                          : por
Language                       : Portuguese
Default                        : No
Forced                         : No

Text #2
ID                             : 4
Format                         : VobSub
Muxing mode                    : zlib
Codec ID                       : S_VOBSUB
Codec ID/Info                  : The same subtitle format used on DVDs
Title                          : eng
Language                       : English
Default                        : No
Forced                         : No

Text #3
ID                             : 5
Format                         : ASS
Codec ID                       : S_TEXT/ASS
Codec ID/Info                  : Advanced Sub Station Alpha
Compression mode               : Lossless
Title                          : Credito
Language                       : Portuguese
Default                        : Yes
Forced                         : No

Menu
00:00:00.000                   : en:Chapter 01
00:06:34.000                   : en:Chapter 02
00:16:15.500                   : en:Chapter 03
00:25:28.000                   : en:Chapter 04
00:33:45.500                   : en:Chapter 05
00:40:44.500                   : en:Chapter 06
00:46:48.000                   : en:Chapter 07
00:55:57.000                   : en:Chapter 08
01:06:23.000                   : en:Chapter 09
01:22:17.000                   : en:Chapter 10
01:32:33.000                   : en:Chapter 11
01:40:40.500                   : en:Chapter 12
01:44:54.434                   : en:Chapter 13

